<svg width="70" height="70" viewBox="0 0 70 70" fill="none" xmlns="http://www.w3.org/2000/svg">
<path d="M35 63.75V55.125M6.25 35H14.875M63.75 35H55.125M35 6.25V14.875M30.9336 39.066L39.0654 30.9342M23.8184 23.819L27.1307 35.0811C28.234 38.8321 31.1675 41.7656 34.9185 42.8688L46.1806 46.1812L42.8682 34.9191C41.765 31.1681 38.8315 28.2346 35.0804 27.1313L23.8184 23.819Z" stroke="#874313" stroke-width="4" stroke-linecap="round" stroke-linejoin="round"/>
<path d="M6.25 35C6.25 50.8782 19.1218 63.75 35 63.75C50.8782 63.75 63.75 50.8782 63.75 35C63.75 19.1218 50.8782 6.25 35 6.25C19.1218 6.25 6.25 19.1218 6.25 35Z" stroke="black" stroke-width="4" stroke-linecap="round" stroke-linejoin="round"/>
</svg>
