<svg width="70" height="70" viewBox="0 0 70 70" fill="none" xmlns="http://www.w3.org/2000/svg">
<path d="M49.375 35C49.375 42.9391 42.9391 49.375 35 49.375C27.0609 49.375 20.625 42.9391 20.625 35C20.625 27.0609 27.0609 20.625 35 20.625M43.625 7.56618C40.9023 6.71102 38.005 6.25 35 6.25C19.1218 6.25 6.25 19.1218 6.25 35C6.25 50.8782 19.1218 63.75 35 63.75C50.8782 63.75 63.75 50.8782 63.75 35C63.75 31.995 63.289 29.0977 62.4338 26.375" stroke="black" stroke-width="4" stroke-linecap="round" stroke-linejoin="round"/>
<path d="M33.5625 36.4375L46.5 23.5M33.5625 36.4375V32.125L37.875 36.4375H33.5625ZM46.5 23.5V17.75L55.125 9.125V14.875H60.875L52.25 23.5H46.5Z" stroke="#874313" stroke-width="4" stroke-linecap="round" stroke-linejoin="round"/>
</svg>
