<svg width="136" height="128" viewBox="0 0 136 128" fill="none" xmlns="http://www.w3.org/2000/svg">
<rect width="136" height="128" rx="24" fill="white"/>
<path d="M100.854 54.9177C100.854 67.9002 89.6831 78.4246 75.9031 78.4246C62.1231 78.4246 50.9523 67.9002 50.9523 54.9177C50.9523 41.9353 62.1231 31.4109 75.9031 31.4109C89.6831 31.4109 100.854 41.9353 100.854 54.9177Z" fill="#874313" stroke="#874313" stroke-width="4"/>
<ellipse cx="60.0253" cy="74.1507" rx="24.9508" ry="23.5068" fill="white" stroke="#3C3C3C" stroke-width="4"/>
<path d="M60.096 89.1096C59.4654 89.1096 58.9326 88.9003 58.4977 88.4817C58.0628 88.0631 57.8454 87.5399 57.8454 86.912V84.5889L58.8239 85.4366C57.367 85.3738 56.1058 85.1959 55.0403 84.9029C53.9748 84.6099 53.105 84.3169 52.4309 84.0239C51.8656 83.7727 51.4633 83.4169 51.2241 82.9565C51.0066 82.4961 50.9197 82.0252 50.9631 81.5438C51.0284 81.0624 51.2132 80.6229 51.5176 80.2253C51.8221 79.8276 52.2135 79.566 52.6919 79.4404C53.192 79.2939 53.7682 79.3567 54.4206 79.6288C54.8555 79.859 55.5078 80.0997 56.3776 80.3509C57.2691 80.5811 58.3673 80.6962 59.6719 80.6962C60.5852 80.6962 61.3028 80.6125 61.8247 80.445C62.3683 80.2776 62.7488 80.0578 62.9663 79.7858C63.2055 79.4928 63.3251 79.1788 63.3251 78.844C63.3251 78.53 63.2381 78.2684 63.0641 78.0591C62.9119 77.8289 62.651 77.6301 62.2813 77.4627C61.9117 77.2743 61.4007 77.1069 60.7483 76.9604L57.0626 76.2069C55.0403 75.7674 53.529 75.0349 52.5288 74.0094C51.5503 72.963 51.061 71.6131 51.061 69.9597C51.061 68.7039 51.3763 67.5842 52.0069 66.6006C52.6592 65.596 53.5617 64.7798 54.7141 64.1519C55.8883 63.524 57.2583 63.1264 58.8239 62.959L57.8454 63.4927V61.3893C57.8454 60.7614 58.0628 60.2382 58.4977 59.8196C58.9326 59.4011 59.4654 59.1918 60.096 59.1918C60.7483 59.1918 61.2919 59.4011 61.7268 59.8196C62.1617 60.2382 62.3792 60.7614 62.3792 61.3893V63.4927L61.4007 62.8962C62.227 62.9171 63.1185 63.0531 64.0753 63.3043C65.0321 63.5345 65.8692 63.8589 66.5868 64.2775C67.0869 64.5286 67.4349 64.874 67.6306 65.3135C67.848 65.753 67.9241 66.2029 67.8589 66.6634C67.8154 67.1029 67.6414 67.5005 67.337 67.8563C67.0543 68.2121 66.6629 68.4528 66.1628 68.5784C65.6844 68.683 65.1082 68.5993 64.4341 68.3272C63.9339 68.1179 63.3686 67.9505 62.738 67.8249C62.1291 67.6784 61.3463 67.6052 60.3895 67.6052C59.2371 67.6052 58.3455 67.804 57.7149 68.2016C57.1061 68.5993 56.8016 69.1121 56.8016 69.7399C56.8016 70.1585 56.9756 70.5143 57.3235 70.8073C57.6932 71.0794 58.3564 71.32 59.3132 71.5293L63.0315 72.3142C65.0973 72.7537 66.6194 73.4862 67.5979 74.5117C68.5982 75.5163 69.0983 76.8243 69.0983 78.4359C69.0983 79.6916 68.783 80.8008 68.1524 81.7635C67.5218 82.7263 66.6412 83.5111 65.5104 84.118C64.4015 84.725 63.1076 85.1226 61.629 85.311L62.3792 84.5576V86.912C62.3792 87.5399 62.1617 88.0631 61.7268 88.4817C61.3137 88.9003 60.7701 89.1096 60.096 89.1096Z" fill="#3C3C3C"/>
<path d="M42.2008 28.5084C43.0048 27.751 43.0048 26.5229 42.2008 25.7655C41.3969 25.0081 40.0934 25.0081 39.2894 25.7655L42.2008 28.5084ZM18.2721 46.3698C18.2721 47.441 19.1938 48.3094 20.3308 48.3094L38.8589 48.3094C39.9959 48.3094 40.9176 47.441 40.9176 46.3698C40.9176 45.2987 39.9959 44.4303 38.8589 44.4303L22.3895 44.4303L22.3895 28.914C22.3895 27.8428 21.4678 26.9744 20.3308 26.9744C19.1938 26.9744 18.2721 27.8428 18.2721 28.914L18.2721 46.3698ZM39.2894 25.7655L18.8751 44.9984L21.7865 47.7413L42.2008 28.5084L39.2894 25.7655Z" fill="#3C3C3C"/>
<path d="M94.8618 99.4916C94.0578 100.249 94.0578 101.477 94.8618 102.234C95.6658 102.992 96.9692 102.992 97.7732 102.234L94.8618 99.4916ZM118.791 81.6302C118.791 80.559 117.869 79.6906 116.732 79.6906L98.2037 79.6906C97.0667 79.6906 96.145 80.559 96.145 81.6302C96.145 82.7013 97.0667 83.5697 98.2037 83.5697L114.673 83.5697L114.673 99.086C114.673 100.157 115.595 101.026 116.732 101.026C117.869 101.026 118.791 100.157 118.791 99.086L118.791 81.6302ZM97.7732 102.234L118.188 83.0016L115.276 80.2587L94.8618 99.4916L97.7732 102.234Z" fill="#3C3C3C"/>
</svg>
