<svg width="70" height="69" viewBox="0 0 70 69" fill="none" xmlns="http://www.w3.org/2000/svg">
<path d="M35.1372 44.4667H31.0847M35.1372 44.4667H39.6812C41.9612 44.4667 44.1477 43.5704 45.7599 41.975L56.4124 31.4333C58.091 29.7722 60.8125 29.7722 62.4911 31.4333C64.1696 33.0944 64.1696 35.7876 62.4911 37.4487L50.631 49.1854C45.2482 54.5121 37.9811 57.5 30.4083 57.5H6.25M35.1372 44.4667C37.3753 44.4667 39.1896 42.6712 39.1896 40.4564C39.1896 38.2416 37.3753 36.4461 35.1372 36.4461H26.5407C24.2607 36.4461 22.0742 37.3424 20.462 38.9378L19.076 40.3094C17.0827 42.2819 14.875 44.1708 12 44.1708C9.75449 44.1708 8.49551 44.1708 6.25 44.1708" stroke="#3C3C3C" stroke-width="4" stroke-linecap="round" stroke-linejoin="round"/>
<path d="M30.2904 10.1525C33.1712 7.6568 37.0054 8.38993 39.3046 11.1154C41.6039 8.38993 45.3885 7.68306 48.3188 10.1525C51.2492 12.6219 51.6052 16.8208 49.3429 19.7724C47.7469 21.8547 43.4068 25.8966 40.9887 28.0968C40.0316 28.9677 38.5777 28.9677 37.6206 28.0968C35.2025 25.8966 30.8623 21.8547 29.2663 19.7724C27.004 16.8208 27.4096 12.6481 30.2904 10.1525Z" fill="#874313"/>
</svg>
