<svg width="31" height="33" viewBox="0 0 31 33" fill="none" xmlns="http://www.w3.org/2000/svg">
<g clip-path="url(#clip0_1306_73)">
<path d="M25.8849 26.4396H21.3956V19.4051C21.3956 17.7277 21.3614 15.5688 19.0562 15.5688C16.7155 15.5688 16.3581 17.3942 16.3581 19.2812V26.4396H11.8688V11.9739H16.1812V13.9457H16.2393C16.8418 12.8088 18.3071 11.6088 20.4961 11.6088C25.0448 11.6088 25.8861 14.6025 25.8861 18.4994L25.8849 26.4396ZM6.79848 9.99452C5.35343 9.99452 4.19259 8.82484 4.19259 7.3861C4.19259 5.94863 5.35469 4.78021 6.79848 4.78021C8.23848 4.78021 9.40564 5.94863 9.40564 7.3861C9.40564 8.82484 8.23722 9.99452 6.79848 9.99452ZM9.04943 26.4396H4.54753V11.9739H9.04943V26.4396ZM28.1308 0.605469H2.29406C1.05743 0.605469 0.0570068 1.58315 0.0570068 2.78947V28.7373C0.0570068 29.9448 1.05743 30.9213 2.29406 30.9213H28.1269C29.3623 30.9213 30.3728 29.9448 30.3728 28.7373V2.78947C30.3728 1.58315 29.3623 0.605469 28.1269 0.605469H28.1308Z" fill="#9AB5B8"/>
</g>
<defs>
<clipPath id="clip0_1306_73">
<rect width="30.3158" height="32" fill="white" transform="translate(0.0568848 0.5)"/>
</clipPath>
</defs>
</svg>
