<svg width="32" height="33" viewBox="0 0 32 33" fill="none" xmlns="http://www.w3.org/2000/svg">
<g clip-path="url(#clip0_1306_63)">
<path d="M30.7063 16.0414C30.7063 7.5382 23.8092 0.735596 15.4003 0.735596C6.99156 0.735596 0 7.63268 0 16.0414C0 23.6943 5.57436 30.0245 12.9439 31.2528V20.4821H9.07014V16.0414H12.9439V12.6402C12.9439 8.76645 15.2114 6.68787 18.7071 6.68787C20.4079 6.68787 22.1085 6.97131 22.1085 6.97131V10.7505H20.2188C18.3293 10.7505 17.7624 11.9788 17.7624 13.1126V15.947H22.014L21.3526 20.3876H17.7624V31.1583C25.1318 30.1191 30.7063 23.7888 30.7063 16.0414Z" fill="#9AB5B8"/>
</g>
<defs>
<clipPath id="clip0_1306_63">
<rect width="31.5284" height="31.5284" fill="white" transform="translate(0 0.735596)"/>
</clipPath>
</defs>
</svg>
