<svg width="33" height="33" viewBox="0 0 33 33" fill="none" xmlns="http://www.w3.org/2000/svg">
<g clip-path="url(#clip0_1306_67)">
<path d="M16.8457 3.47578C20.9084 3.47578 21.3807 3.47578 22.9869 3.57026C24.4986 3.66475 25.2544 3.8537 25.8213 4.13714C26.5772 4.42058 27.0496 4.70403 27.6164 5.27091C28.1833 5.83779 28.4668 6.3102 28.7502 7.06604C28.9391 7.63292 29.2226 8.38877 29.3171 9.90046C29.4116 11.5066 29.4116 11.979 29.4116 16.0417C29.4116 20.1044 29.4116 20.5768 29.3171 22.1829C29.2226 23.6946 29.0337 24.4504 28.7502 25.0173C28.4668 25.7732 28.1833 26.2456 27.6164 26.8125C27.0496 27.3794 26.5772 27.6628 25.8213 27.9462C25.2544 28.1353 24.4986 28.4186 22.9869 28.5131C21.3807 28.6076 20.9084 28.6076 16.8457 28.6076C12.783 28.6076 12.3106 28.6076 10.7044 28.5131C9.19272 28.4186 8.43688 28.2297 7.87 27.9462C7.11415 27.6628 6.64175 27.3794 6.07486 26.8125C5.50798 26.2456 5.22454 25.7732 4.9411 25.0173C4.75214 24.4504 4.4687 23.6946 4.37421 22.1829C4.27973 20.5768 4.27973 20.1044 4.27973 16.0417C4.27973 11.979 4.27973 11.5066 4.37421 9.90046C4.4687 8.38877 4.65765 7.63292 4.9411 7.06604C5.22454 6.3102 5.50798 5.83779 6.07486 5.27091C6.64175 4.70403 7.11415 4.42058 7.87 4.13714C8.3424 3.8537 9.09825 3.66475 10.6099 3.57026C12.2161 3.47578 12.6885 3.47578 16.8457 3.47578ZM16.8457 0.73584C12.6885 0.73584 12.2161 0.73584 10.5155 0.83032C8.90928 0.924801 7.77552 1.11376 6.83071 1.49169C5.79142 1.86961 4.9411 2.43649 4.09077 3.28682C3.24045 4.13714 2.76804 4.98747 2.29564 6.02676C1.91772 6.97156 1.63428 8.10533 1.53979 9.7115C1.53979 11.3177 1.53979 11.8846 1.53979 16.0417C1.53979 20.1988 1.53979 20.6713 1.63428 22.3719C1.72876 23.9781 2.0122 25.1118 2.39013 26.0567C2.76804 27.0959 3.33492 27.9462 4.18526 28.7966C5.03558 29.6469 5.8859 30.2138 6.92519 30.5917C7.87 30.9697 9.00377 31.253 10.6099 31.3475C12.2161 31.4421 12.783 31.4421 16.9401 31.4421C21.0973 31.4421 21.5697 31.4421 23.2703 31.3475C24.8766 31.253 26.0103 30.9697 26.9551 30.5917C27.9944 30.2138 28.8447 29.6469 29.695 28.7966C30.5454 27.9462 31.1123 27.0959 31.4901 26.0567C31.8681 25.1118 32.1515 23.9781 32.246 22.3719C32.3404 20.7657 32.3404 20.1988 32.3404 16.0417C32.3404 11.8846 32.3404 11.4122 32.246 9.7115C32.1515 8.10533 31.8681 6.97156 31.4901 6.02676C31.1123 4.98747 30.5454 4.13714 29.695 3.28682C28.8447 2.43649 27.9944 1.86961 26.9551 1.49169C26.0103 1.11376 24.8766 0.83032 23.2703 0.73584C21.4753 0.73584 20.9084 0.73584 16.8457 0.73584Z" fill="#9AB5B8"/>
<path d="M16.8458 8.19995C12.4997 8.19995 9.00391 11.6957 9.00391 16.0418C9.00391 20.3879 12.4997 23.8837 16.8458 23.8837C21.1919 23.8837 24.6877 20.3879 24.6877 16.0418C24.6877 11.6957 21.0974 8.19995 16.8458 8.19995ZM16.8458 21.0493C14.0114 21.0493 11.7438 18.7818 11.7438 15.9474C11.7438 13.113 14.0114 10.8454 16.8458 10.8454C19.6802 10.8454 21.9477 13.113 21.9477 15.9474C21.8533 18.7818 19.5858 21.0493 16.8458 21.0493Z" fill="#9AB5B8"/>
<path d="M24.9712 9.61687C25.9625 9.61687 26.7663 8.81317 26.7663 7.82174C26.7663 6.83032 25.9625 6.02661 24.9712 6.02661C23.9798 6.02661 23.176 6.83032 23.176 7.82174C23.176 8.81317 23.9798 9.61687 24.9712 9.61687Z" fill="#9AB5B8"/>
</g>
<defs>
<clipPath id="clip0_1306_67">
<rect width="31.5284" height="31.5284" fill="white" transform="translate(0.528442 0.73584)"/>
</clipPath>
</defs>
</svg>
