<svg width="137" height="128" viewBox="0 0 137 128" fill="none" xmlns="http://www.w3.org/2000/svg">
<rect width="137" height="128" rx="24" fill="white"/>
<rect x="29.9688" y="74" width="47.0938" height="14" rx="6" fill="#F6F6F6" stroke="#3C3C3C" stroke-width="4"/>
<rect x="38.5312" y="31" width="47.0938" height="14" rx="6" stroke="#3C3C3C" stroke-width="4"/>
<rect x="29.9688" y="45" width="47.0938" height="14" rx="6" stroke="#3C3C3C" stroke-width="4"/>
<rect x="36.3906" y="59" width="47.0938" height="14" rx="6" stroke="#3C3C3C" stroke-width="4"/>
<ellipse cx="81.8609" cy="72.5069" rx="25.1343" ry="23.5069" fill="#874313" stroke="#874313" stroke-width="4"/>
<path d="M81.9922 87.9178C81.357 87.9178 80.8203 87.7085 80.3822 87.2899C79.9441 86.8714 79.725 86.3481 79.725 85.7203V83.3972L80.7108 84.2448C79.2431 84.182 77.9727 84.0041 76.8993 83.7111C75.826 83.4181 74.9498 83.1251 74.2708 82.8321C73.7012 82.5809 73.296 82.2252 73.0551 81.7647C72.836 81.3043 72.7484 80.8334 72.7922 80.352C72.8579 79.8707 73.0441 79.4312 73.3508 79.0335C73.6574 78.6359 74.0517 78.3742 74.5336 78.2487C75.0374 78.1022 75.6179 78.165 76.2751 78.437C76.7131 78.6672 77.3703 78.9079 78.2465 79.1591C79.1446 79.3893 80.2508 79.5044 81.565 79.5044C82.485 79.5044 83.2079 79.4207 83.7336 79.2533C84.2812 79.0858 84.6646 78.8661 84.8836 78.594C85.1246 78.301 85.245 77.9871 85.245 77.6522C85.245 77.3383 85.1574 77.0767 84.9822 76.8674C84.8288 76.6372 84.566 76.4383 84.1936 76.2709C83.8212 76.0825 83.3065 75.9151 82.6493 75.7686L78.9365 75.0152C76.8993 74.5757 75.377 73.8431 74.3693 72.8176C73.3836 71.7712 72.8908 70.4213 72.8908 68.7679C72.8908 67.5122 73.2084 66.3925 73.8436 65.4088C74.5008 64.4042 75.4098 63.588 76.5708 62.9601C77.7536 62.3323 79.1336 61.9346 80.7108 61.7672L79.725 62.3009V60.1975C79.725 59.5697 79.9441 59.0464 80.3822 58.6279C80.8203 58.2093 81.357 58 81.9922 58C82.6493 58 83.1969 58.2093 83.635 58.6279C84.0731 59.0464 84.2922 59.5697 84.2922 60.1975V62.3009L83.3065 61.7044C84.1389 61.7253 85.0369 61.8614 86.0008 62.1125C86.9646 62.3427 87.8079 62.6671 88.5307 63.0857C89.0346 63.3369 89.385 63.6822 89.5822 64.1217C89.8012 64.5612 89.8779 65.0112 89.8122 65.4716C89.7684 65.9111 89.5931 66.3088 89.2865 66.6645C89.0017 67.0203 88.6074 67.261 88.1036 67.3866C87.6217 67.4912 87.0412 67.4075 86.3622 67.1354C85.8584 66.9262 85.2889 66.7587 84.6536 66.6332C84.0403 66.4867 83.2517 66.4134 82.2879 66.4134C81.127 66.4134 80.2289 66.6122 79.5936 67.0099C78.9803 67.4075 78.6736 67.9203 78.6736 68.5481C78.6736 68.9667 78.8489 69.3225 79.1993 69.6155C79.5717 69.8876 80.2398 70.1283 81.2036 70.3376L84.9493 71.1224C87.0303 71.5619 88.5636 72.2944 89.5493 73.3199C90.5569 74.3245 91.0607 75.6326 91.0607 77.2441C91.0607 78.4998 90.7431 79.6091 90.1079 80.5718C89.4727 81.5345 88.5855 82.3193 87.4465 82.9263C86.3293 83.5332 85.026 83.9309 83.5365 84.1192L84.2922 83.3658V85.7203C84.2922 86.3481 84.0731 86.8714 83.635 87.2899C83.2189 87.7085 82.6712 87.9178 81.9922 87.9178Z" fill="white"/>
</svg>
