<svg width="66" height="91" viewBox="0 0 66 91" fill="none" xmlns="http://www.w3.org/2000/svg">
<rect x="14.3899" y="79.9576" width="77.7725" height="49.11" rx="10.6452" transform="rotate(-90 14.3899 79.9576)" stroke="#3C3C3C" stroke-width="4"/>
<circle cx="22.2286" cy="18.3099" r="2" transform="rotate(-90 22.2286 18.3099)" fill="black" stroke="#3C3C3C" stroke-width="1.90111"/>
<circle cx="33.1879" cy="18.3099" r="2" transform="rotate(-90 33.1879 18.3099)" fill="black" stroke="#3C3C3C" stroke-width="1.90111"/>
<circle cx="44.1468" cy="18.3099" r="2" transform="rotate(-90 44.1468 18.3099)" fill="black" stroke="#3C3C3C" stroke-width="1.90111"/>
<circle cx="55.1063" cy="18.3099" r="2" transform="rotate(-90 55.1063 18.3099)" fill="black" stroke="#3C3C3C" stroke-width="1.90111"/>
<path d="M40.4884 41.3485C40.5374 41.1129 40.7767 41.0043 40.9936 41.1193L52.1675 47.044C52.2953 47.1117 52.3872 47.2443 52.408 47.3911L52.9354 51.1153C52.9758 51.4008 52.7402 51.6077 52.4803 51.5149L39.718 46.9632C39.5132 46.8901 39.3831 46.6584 39.4274 46.4456L40.4884 41.3485Z" fill="#874313"/>
<path d="M37.5666 41.3231C37.5175 41.0875 37.2783 40.9789 37.0614 41.094L25.8874 47.0186C25.7596 47.0864 25.6677 47.219 25.6469 47.3657L25.1195 51.0899C25.0791 51.3754 25.3147 51.5823 25.5747 51.4896L38.337 46.9378C38.5417 46.8647 38.6718 46.633 38.6275 46.4202L37.5666 41.3231Z" fill="#874313"/>
<path d="M32.1397 57.9002C32.1601 57.803 32.2303 57.7239 32.3244 57.692L38.6271 55.5512C38.6855 55.5314 38.7487 55.5313 38.8071 55.5509L45.1806 57.6932C45.2734 57.7244 45.3434 57.8017 45.3651 57.8973L46.5189 62.9596C46.5657 63.1653 46.3777 63.3475 46.1736 63.2941L38.789 61.3635C38.7419 61.3511 38.6924 61.3513 38.6453 61.3638L31.4198 63.2932C31.2173 63.3473 31.0289 63.1687 31.0722 62.9636L32.1397 57.9002Z" fill="#874313"/>
<path d="M36.2002 30.9963C36.2002 29.5258 37.3923 28.3336 38.8629 28.3336C40.3335 28.3336 41.5256 29.5257 41.5256 30.9963V58.7644H36.2002V30.9963Z" fill="#874313"/>
<path d="M14.2919 10.8359H13.9116C7.60913 10.8359 2.5 15.9451 2.5 22.2475V77.4033C2.5 83.7058 7.60913 88.8149 13.9116 88.8149H44.3424C47.9137 88.8149 50.8089 85.9197 50.8089 82.3483V82.3483" stroke="#3C3C3C" stroke-width="4" stroke-linecap="round"/>
</svg>
