<svg width="95" height="94" viewBox="0 0 95 94" fill="none" xmlns="http://www.w3.org/2000/svg">
<path fill-rule="evenodd" clip-rule="evenodd" d="M26 23.5C26 15.9521 32.1187 9.83337 39.6666 9.83337C47.2145 9.83337 53.3333 15.9521 53.3333 23.5C53.3333 31.0479 47.2145 37.1667 39.6666 37.1667C32.1187 37.1667 26 31.0479 26 23.5ZM39.6666 5.83337C29.9096 5.83337 22 13.743 22 23.5C22 33.2571 29.9096 41.1667 39.6666 41.1667C49.4237 41.1667 57.3333 33.2571 57.3333 23.5C57.3333 13.743 49.4237 5.83337 39.6666 5.83337ZM39.6666 48.9167C25.5834 48.9167 14.1666 60.3334 14.1666 74.4167C14.1666 77.6844 16.8156 80.3334 20.0833 80.3334H45.67C45.0072 79.0444 44.5041 77.7022 44.1581 76.3334H20.0833C19.0247 76.3334 18.1666 75.4753 18.1666 74.4167C18.1666 62.5426 27.7925 52.9167 39.6666 52.9167C43.9739 52.9167 47.9853 54.1833 51.3487 56.3643C52.5859 55.4477 53.8732 54.7256 55.186 54.1815C50.8872 50.8796 45.5061 48.9167 39.6666 48.9167Z" fill="black"/>
<path fill-rule="evenodd" clip-rule="evenodd" d="M67.0753 67.1811C64.7261 64.3837 60.8086 63.6313 57.8651 66.1928C54.9217 68.7543 54.5073 73.037 56.8188 76.0665C59.1303 79.096 67.0753 86.1667 67.0753 86.1667C67.0753 86.1667 75.0204 79.096 77.3319 76.0665C79.6433 73.037 79.2795 68.7273 76.2855 66.1928C73.2915 63.6582 69.4246 64.3837 67.0753 67.1811Z" fill="#874313"/>
<path d="M67.0753 67.1811L66.3096 67.8242C66.4996 68.0504 66.7799 68.1811 67.0753 68.1811C67.3708 68.1811 67.6511 68.0504 67.8411 67.8242L67.0753 67.1811ZM67.0753 86.1667L66.4105 86.9137C66.7895 87.251 67.3611 87.251 67.7401 86.9137L67.0753 86.1667ZM67.8411 66.5379C65.1998 63.3928 60.649 62.4445 57.2087 65.4384L58.5216 66.9471C60.9681 64.818 64.2524 65.3747 66.3096 67.8242L67.8411 66.5379ZM57.2087 65.4384C53.8693 68.3444 53.3909 73.2224 56.0238 76.6731L57.6138 75.4599C55.6237 72.8516 55.9741 69.1641 58.5216 66.9471L57.2087 65.4384ZM78.1269 76.6731C80.7511 73.2337 80.345 68.3191 76.9316 65.4295L75.6394 66.956C78.2141 69.1356 78.5356 72.8403 76.5368 75.4599L78.1269 76.6731ZM76.9316 65.4295C73.4509 62.4829 68.9585 63.3837 66.3096 66.5379L67.8411 67.8242C69.8906 65.3838 73.1321 64.8335 75.6394 66.956L76.9316 65.4295ZM56.0238 76.6731C57.2383 78.2649 59.8665 80.8469 62.1277 82.98C63.2709 84.0586 64.341 85.0414 65.125 85.7544C65.5171 86.111 65.838 86.4004 66.0611 86.6008C66.1726 86.701 66.2597 86.779 66.3191 86.832C66.3487 86.8586 66.3715 86.8789 66.3868 86.8926C66.3945 86.8994 66.4004 86.9047 66.4044 86.9082C66.4063 86.91 66.4078 86.9113 66.4089 86.9122C66.4094 86.9127 66.4098 86.913 66.4101 86.9133C66.4102 86.9134 66.4103 86.9135 66.4104 86.9136C66.4105 86.9136 66.4105 86.9137 67.0753 86.1667C67.7401 85.4196 67.7401 85.4196 67.7401 85.4196C67.74 85.4196 67.74 85.4195 67.7399 85.4194C67.7397 85.4192 67.7393 85.4189 67.7389 85.4185C67.738 85.4177 67.7366 85.4165 67.7348 85.4149C67.7311 85.4116 67.7255 85.4066 67.7181 85.4C67.7033 85.3868 67.6811 85.367 67.652 85.341C67.5939 85.289 67.508 85.2121 67.3978 85.1131C67.1773 84.915 66.8594 84.6283 66.4706 84.2747C65.6927 83.5673 64.632 82.5931 63.5001 81.5252C61.2109 79.3656 58.7108 76.8976 57.6138 75.4599L56.0238 76.6731ZM67.0753 86.1667C67.7401 86.9137 67.7402 86.9136 67.7403 86.9136C67.7403 86.9135 67.7405 86.9134 67.7406 86.9133C67.7409 86.913 67.7413 86.9127 67.7418 86.9122C67.7428 86.9113 67.7443 86.91 67.7463 86.9082C67.7503 86.9047 67.7561 86.8994 67.7638 86.8926C67.7792 86.8789 67.8019 86.8586 67.8316 86.832C67.8909 86.779 67.978 86.701 68.0896 86.6008C68.3126 86.4004 68.6335 86.111 69.0257 85.7544C69.8097 85.0414 70.8797 84.0586 72.023 82.98C74.2841 80.8469 76.9123 78.2649 78.1269 76.6731L76.5368 75.4599C75.4399 76.8976 72.9398 79.3656 70.6506 81.5252C69.5186 82.5931 68.458 83.5673 67.6801 84.2747C67.2912 84.6283 66.9733 84.915 66.7529 85.1131C66.6427 85.2121 66.5568 85.289 66.4986 85.341C66.4696 85.367 66.4474 85.3868 66.4326 85.4C66.4252 85.4066 66.4196 85.4116 66.4159 85.4149C66.414 85.4165 66.4127 85.4177 66.4118 85.4185C66.4113 85.4189 66.411 85.4192 66.4108 85.4194C66.4107 85.4195 66.4106 85.4196 66.4106 85.4196C66.4105 85.4196 66.4105 85.4196 67.0753 86.1667Z" fill="#874313"/>
</svg>
